<?xml version="1.0" encoding="utf-8"?>
<!-- Generator: Adobe Illustrator 25.4.0, SVG Export Plug-In . SVG Version: 6.00 Build 0)  -->
<svg version="1.1" id="Capa_1" xmlns="http://www.w3.org/2000/svg" xmlns:xlink="http://www.w3.org/1999/xlink" x="0px" y="0px"
	 viewBox="0 0 43.1 43.1" style="enable-background:new 0 0 43.1 43.1;" xml:space="preserve">
<style type="text/css">
	.st0{fill:#FFFFFF;}
	.st1{fill:none;}
</style>
<path class="st0" d="M5.8,30.8v-0.6c0-0.5,0.4-0.9,0.9-0.9h29.7c0.5,0,0.9,0.4,0.9,0.9v0.6c0,0.5-0.4,0.9-0.9,0.9H6.7
	C6.2,31.7,5.8,31.3,5.8,30.8z M5.8,21.8v-0.6c0-0.5,0.4-0.9,0.9-0.9h29.7c0.5,0,0.9,0.4,0.9,0.9v0.6c0,0.5-0.4,0.9-0.9,0.9H6.7
	C6.2,22.7,5.8,22.3,5.8,21.8z M5.8,12.8v-0.6c0-0.5,0.4-0.9,0.9-0.9h29.7c0.5,0,0.9,0.4,0.9,0.9v0.6c0,0.5-0.4,0.9-0.9,0.9H6.7
	C6.2,13.8,5.8,13.4,5.8,12.8z"/>
<g>
	<path class="st1" d="M36.3,43.1H6.8C3.1,43.1,0,40,0,36.3V6.8C0,3.1,3.1,0,6.8,0h29.4C40,0,43,3.1,43,6.8v29.4
		C43.1,40,40,43.1,36.3,43.1z M6.8,1.6C4,1.6,1.6,4,1.6,6.8v29.4c0,2.9,2.4,5.2,5.2,5.2h29.4c2.9,0,5.2-2.4,5.2-5.2V6.8
		c0-2.9-2.4-5.2-5.2-5.2C36.2,1.6,6.8,1.6,6.8,1.6z"/>
</g>
</svg>
